PathFileType	4	(X/Y/Z)	E:\Qualisys_Data\Carbon_Farble_Plate\Data\Amateur_Runner\S2\T2\S2T2V11_c3d.trc
DataRate	CameraRate	NumFrames	NumMarkers	Units	OrigDataRate	OrigDataStartFrame	OrigNumFrames
200.000000	200.000000	4	39	mm	200.000000	122	326
Frame#	Time	LSHO			RSHO			LICST			RICST			LASIS			LHEEL			RASIS			LTROC			RTROC			SACR			LTH1			LSK4			LTH2			LTH3			RHM5			LSK2			LTH4			RTH1			LTOE			RTH2			RTH3			RTH4			LLEP			RLEP			LSK1			LSK3			RSK1			LHM5			RSK2			LFT1			RSK3			RSK4			LLME			RLME			RTOE			RHEEL			RFT1			RFT2			LFT2			
		X1	Y1	Z1	X2	Y2	Z2	X3	Y3	Z3	X4	Y4	Z4	X5	Y5	Z5	X6	Y6	Z6	X7	Y7	Z7	X8	Y8	Z8	X9	Y9	Z9	X10	Y10	Z10	X11	Y11	Z11	X12	Y12	Z12	X13	Y13	Z13	X14	Y14	Z14	X15	Y15	Z15	X16	Y16	Z16	X17	Y17	Z17	X18	Y18	Z18	X19	Y19	Z19	X20	Y20	Z20	X21	Y21	Z21	X22	Y22	Z22	X23	Y23	Z23	X24	Y24	Z24	X25	Y25	Z25	X26	Y26	Z26	X27	Y27	Z27	X28	Y28	Z28	X29	Y29	Z29	X30	Y30	Z30	X31	Y31	Z31	X32	Y32	Z32	X33	Y33	Z33	X34	Y34	Z34	X35	Y35	Z35	X36	Y36	Z36	X37	Y37	Z37	X38	Y38	Z38	X39	Y39	Z39	

123	0.61	-760.3219604492188	1430.98583984375	-554.01318359375	-756.8197021484375	1431.207153320312	-236.8894805908203	-825.64306640625	973.5396728515624	-521.5111694335938	-797.4918823242188	967.8782958984376	-217.2698211669922	-770.0643920898438	925.1725463867188	-508.9134216308594	-1135.184448242188	141.1944580078125	-371.8723754882812	-739.3977661132812	921.8618774414062	-248.227294921875	-903.1974487304688	852.0026245117188	-506.72412109375	-870.6695556640625	860.6057739257812	-203.4071807861328	-901.0079345703124	1014.382751464844	-363.642822265625	-787.32568359375	623.7249755859375	-519.530029296875	-996.6204223632812	296.885986328125	-473.10009765625	-869.3207397460938	622.1025390625	-514.927001953125	-785.8062744140625	521.7073974609375	-496.7461547851562	-941.9801635742188	197.0851898193359	-207.6698913574219	-940.1854858398438	376.6522521972656	-493.4313049316406	-869.18505859375	524.6510620117188	-488.7425842285156	-644.1431274414062	665.7807006835938	-207.5543365478516	-910.1637573242188	62.39146423339844	-400.6190490722656	-715.6630859375	632.5101318359375	-200.1957244873047	-603.7449340820312	574.1627807617188	-226.2792816162109	-679.4780883789062	543.4421997070312	-220.8985748291016	-836.4239501953125	464.2078552246094	-488.1245727539062	-641.9718017578125	518.751708984375	-221.2750244140625	-875.7841796875	333.8660278320312	-480.0989685058594	-932.201416015625	252.7204742431641	-463.2493286132812	-700.2071533203125	427.4747314453125	-221.3077392578125	-969.713134765625	63.66461181640625	-458.1602478027344	-740.010009765625	497.1591186523438	-218.9534301757812	-1135.322143554688	108.9698638916016	-351.958984375	-788.7945556640625	376.9026794433594	-227.2954559326172	-825.3068237304688	447.3149719238281	-227.2351837158203	-1068.085327148438	138.3592987060547	-434.0968933105469	-968.2007446289062	316.0855102539062	-245.5395050048828	-883.8989868164062	145.5657806396484	-260.0834655761719	-1015.005859375	352.973876953125	-307.7816772460938	-1029.517456054688	321.140869140625	-336.0550842285156	-1040.95263671875	337.438232421875	-283.3663940429688	-1142.244384765625	112.2344665527344	-404.2518920898438
124	0.615	-742.1832885742188	1435.821411132812	-552.5594482421875	-742.6353759765625	1435.366333007812	-236.4436340332031	-807.9044189453125	976.9849243164062	-521.3189086914062	-780.9413452148438	972.9303588867188	-217.1182403564453	-752.9452514648438	928.6622314453124	-508.4418640136719	-1131.684814453125	147.0240783691406	-373.2029724121094	-723.3060302734375	926.5745849609376	-247.7621002197266	-887.1415405273438	856.8027954101562	-505.7524719238281	-853.5926513671875	865.8714599609375	-202.4018402099609	-884.2907104492188	1018.707397460938	-364.7749938964844	-775.40185546875	626.903076171875	-518.7598876953125	-991.671875	302.8675231933594	-474.2098999023438	-857.5237426757812	627.3572998046875	-514.8034057617188	-776.1700439453125	524.716552734375	-496.8530578613281	-908.5236206054688	191.4172973632812	-208.0807342529297	-934.4349975585938	382.4697570800781	-494.6488647460938	-859.64013671875	529.9578247070312	-489.3136291503906	-625.3859252929688	673.3079223632812	-207.7359161376953	-909.332275390625	62.77603149414062	-401.1506652832031	-696.0442504882812	638.9178466796875	-200.2552185058594	-584.1759033203125	581.8447265625	-227.2641906738281	-659.3602905273438	550.1515502929688	-220.7149810791016	-829.1268920898438	468.2705688476562	-488.7472534179688	-622.1672973632812	524.7384643554688	-221.8049468994141	-870.2876586914062	338.8910217285156	-482.205078125	-927.1609497070312	258.200439453125	-465.0811157226562	-677.281494140625	430.970703125	-221.1846160888672	-968.5449829101562	65.0116195678711	-459.0400390625	-720.0496215820312	499.0622253417969	-219.1632843017578	-1132.317260742188	114.9809036254883	-352.4569091796875	-764.267578125	376.7138977050781	-227.8541259765625	-803.4426879882812	445.6740112304688	-227.3855590820312	-1063.6484375	143.8031921386719	-435.5574340820312	-940.3878173828124	307.3283081054688	-249.1088256835938	-847.7178955078125	143.1192016601562	-260.1934509277344	-989.8831176757812	343.7256164550781	-305.6461791992188	-1002.359558105469	310.6476135253906	-336.3179016113281	-1014.469604492188	326.3305969238281	-283.4303283691406	-1139.113525390625	117.7480316162109	-404.9619750976562
125	0.62	-724.0955200195312	1440.890869140625	-551.6956787109375	-728.3067016601562	1439.941040039062	-235.8475799560547	-790.1306762695312	980.6531372070312	-520.6184692382812	-764.8097534179688	978.1052856445312	-217.271240234375	-735.949462890625	932.0505981445312	-508.0536804199219	-1127.733764648438	152.3772735595703	-373.3563232421875	-706.8242797851562	931.7025756835938	-247.7822265625	-870.8713989257812	861.2320556640625	-504.7184143066406	-836.4409790039062	871.4515380859375	-201.2442779541016	-867.4067993164062	1023.13525390625	-365.2173767089844	-763.107421875	630.3133544921875	-518.8877563476562	-986.0242919921876	308.8956604003906	-475.5807495117188	-845.2054443359375	632.6734619140625	-515.1878051757812	-766.6708374023438	528.2651977539062	-496.5929870605469	-875.0407104492188	186.2208557128906	-208.0837860107422	-928.1373901367188	388.4873962402344	-495.656982421875	-849.9765014648438	535.3362426757812	-490.3997497558594	-606.9564819335938	680.1558227539062	-208.1145324707031	-908.289794921875	63.01291656494141	-401.9071960449219	-676.9570922851562	645.5755615234375	-199.7601776123047	-564.9765014648438	589.3165893554688	-227.9906616210938	-639.7776489257812	556.81787109375	-220.3832855224609	-821.4627075195312	472.7679138183594	-489.4985961914062	-602.4312744140625	531.0074462890625	-222.5050354003906	-864.648681640625	344.0975646972656	-483.6022644042969	-921.9814453125	263.59375	-467.6142578125	-655.1729736328125	434.382568359375	-221.7454681396484	-967.5460815429688	64.62522888183594	-459.1806640625	-700.9674682617188	500.5205383300781	-219.3599700927734	-1128.737670898438	121.2379302978516	-353.6182861328125	-739.1648559570312	376.701416015625	-228.0572357177734	-781.6610107421875	443.7063293457031	-227.3477020263672	-1059.049926757812	148.5070648193359	-437.3084106445312	-913.114990234375	301.2467956542969	-246.3458404541016	-811.6812133789062	140.761962890625	-260.2671508789062	-963.810791015625	333.1964721679688	-308.2077331542969	-974.2394409179688	299.6493225097656	-335.9244384765625	-987.5523071289062	315.4703369140625	-283.5300903320312	-1135.623901367188	123.6074142456055	-406.0505676269531
126	0.625	-705.9091796875	1445.991577148438	-550.7865600585938	-713.6036376953125	1444.448120117188	-235.4225158691406	-771.97998046875	985.020263671875	-520.241455078125	-747.9256591796875	983.1610107421876	-217.1137542724609	-718.5795288085938	935.5391235351562	-507.7874145507812	-1122.182861328125	159.8146820068359	-375.9495239257812	-690.5305786132812	936.6561279296876	-247.4542083740234	-854.0505981445312	866.1835327148438	-503.8583068847656	-818.9174194335938	877.1571655273438	-200.0002288818359	-850.6536254882812	1027.530883789062	-365.83837890625	-750.5484619140625	633.7109375	-518.231201171875	-979.9671630859376	315.6112365722656	-477.4504699707031	-833.1165161132812	638.0366821289062	-515.8228759765625	-756.61669921875	531.60107421875	-496.8086242675781	-841.0758666992188	180.6597747802734	-208.4441223144531	-921.6024169921876	394.87109375	-496.6524353027344	-840.6543579101562	540.2692260742188	-490.3406372070312	-588.2686767578125	687.0332641601562	-208.5471496582031	-908.8482666015624	62.49236679077148	-401.3211669921875	-658.25	651.6036376953125	-199.1444854736328	-546.1507568359375	596.4408569335938	-228.7021484375	-620.360595703125	563.6021118164062	-219.9030303955078	-813.1748046875	477.7804870605469	-490.7047424316406	-583.7423706054688	536.9205932617188	-223.4608001708984	-858.2718505859375	349.5940246582031	-485.7665710449219	-917.2206420898438	269.5084533691406	-469.8319702148438	-632.799072265625	437.4935302734375	-222.4828186035156	-965.1928100585938	66.0772476196289	-460.3631286621094	-681.291748046875	501.6045532226562	-219.2960662841797	-1124.20654296875	127.8404083251953	-354.9051818847656	-714.3921508789062	375.596923828125	-228.2197875976562	-760.029541015625	441.3370361328125	-227.1102752685547	-1053.276611328125	154.2078704833984	-439.6427001953125	-885.1622924804688	293.1769104003906	-246.5623474121094	-775.5067138671875	138.8770751953125	-260.7032165527344	-937.6969604492188	323.0212097167969	-308.3359069824219	-946.8709106445312	289.1535034179688	-336.1325378417969	-960.6117553710938	303.2021789550781	-283.86962890625	-1131.267822265625	129.6571197509766	-407.2627868652344
